<?xml version="1.0" encoding="UTF-8" standalone="no"?>
<!DOCTYPE svg PUBLIC "-//W3C//DTD SVG 1.1//EN" "http://www.w3.org/Graphics/SVG/1.1/DTD/svg11.dtd">
<svg width="100%" height="100%" viewBox="0 0 1183 742" version="1.1" xmlns="http://www.w3.org/2000/svg" xmlns:xlink="http://www.w3.org/1999/xlink" xml:space="preserve" xmlns:serif="http://www.serif.com/" style="fill-rule:evenodd;clip-rule:evenodd;stroke-linecap:round;stroke-linejoin:round;stroke-miterlimit:1.5;">
    <g id="icon" transform="matrix(0.990201,-0.139652,0.139652,0.990201,-288.935,-28.3178)">
        <g transform="matrix(0.990201,0.139652,-0.139652,0.990201,282.149,68.3906)">
            <path d="M387.957,171.712L285.029,94.228C209.052,104.943 117.847,117.806 62.576,125.601C34.92,129.502 15.662,155.084 19.562,182.74C34.591,289.302 69.591,537.469 84.62,644.031C88.521,671.688 114.102,690.946 141.759,687.045C219.4,676.095 367.947,655.145 445.588,644.195C473.244,640.295 492.502,614.713 488.602,587.056L487.612,580.035L436.354,579.762C408.425,579.613 385.904,556.85 386.053,528.921L387.957,171.712Z" style="fill:none;stroke:rgb(132,137,143);stroke-width:25px;"/>
        </g>
        <g transform="matrix(1.19212,8.32667e-17,-8.32667e-17,1.19212,-161.404,-8.71162)">
            <path d="M585.082,176.335L585.082,279.201C585.082,284.823 587.315,290.214 591.29,294.189C595.266,298.165 600.657,300.398 606.279,300.398L667.224,300.398" style="fill:none;stroke:rgb(132,137,143);stroke-width:20.97px;"/>
        </g>
        <g transform="matrix(0.990201,0.139652,-0.139652,0.990201,282.149,68.3906)">
            <path d="M343.962,473.327C342.712,528.768 297.306,573.398 241.559,573.398C185.027,573.398 139.129,527.501 139.129,470.968C139.129,414.435 185.027,368.538 241.559,368.538C265.552,368.538 287.629,376.805 305.097,390.645L273.634,482.871L343.962,473.327Z" style="fill:none;stroke:rgb(132,137,143);stroke-width:25px;"/>
        </g>
        <g transform="matrix(0.999986,0.00522263,-0.00522263,0.999986,172.553,-150.902)">
            <path d="M387.953,592L436.944,689.983L430.732,734L316.953,734L387.953,592Z" style="fill:none;stroke:rgb(132,137,143);stroke-width:25px;"/>
        </g>
    </g>
    <g id="icon1" serif:id="icon" transform="matrix(0.999986,0.00533145,-0.00533145,0.999986,113.884,-190.469)">
        <g transform="matrix(0.999986,-0.00533145,0.00533145,0.999986,-112.867,191.073)">
            <path d="M656.963,580.938L761.653,133.295C762.894,127.989 764.928,123.075 767.601,118.65L664.028,13.967C587.3,13.558 495.194,13.067 439.377,12.77C411.448,12.621 388.685,35.142 388.536,63.071C387.963,170.686 386.627,421.306 386.053,528.921C385.904,556.85 408.425,579.613 436.354,579.762L656.963,580.938Z" style="fill:none;stroke:rgb(132,137,143);stroke-width:25px;"/>
        </g>
        <g transform="matrix(1.19212,-1.11022e-16,1.11022e-16,1.19212,-161.404,-8.71162)">
            <path d="M585.082,176.335L585.082,279.244C585.082,290.934 594.546,300.417 606.235,300.441C632.703,300.496 674.597,300.582 674.597,300.582" style="fill:none;stroke:rgb(132,137,143);stroke-width:20.97px;"/>
        </g>
        <g transform="matrix(0.999986,-0.00533145,0.00533145,0.999986,-45.8656,-8.03929)">
            <g transform="matrix(1,0,0,1,-138,-70)">
                <path d="M661,713L661,555" style="fill:none;stroke:rgb(132,137,143);stroke-width:25px;"/>
            </g>
            <g transform="matrix(1,0,0,1,-134,-70)">
                <path d="M579,571L579,555L735,555L735,571" style="fill:none;stroke:rgb(132,137,143);stroke-width:25px;"/>
            </g>
            <g transform="matrix(1,0,0,1,-138.5,-74)">
                <path d="M639,717L684,717" style="fill:none;stroke:rgb(132,137,143);stroke-width:25px;"/>
            </g>
        </g>
    </g>
    <g id="icon2" serif:id="icon" transform="matrix(0.973726,0.227724,-0.227724,0.973726,550.307,-175.006)">
        <path d="M683.98,334.254L551.226,201.5L326.572,201.5C298.642,201.5 276,224.142 276,252.072C276,359.689 276,610.311 276,717.928C276,745.858 298.642,768.5 326.572,768.5C404.981,768.5 554.999,768.5 633.408,768.5C661.338,768.5 683.98,745.858 683.98,717.928C683.98,632.473 683.98,456.847 683.98,334.254Z" style="fill:none;stroke:rgb(132,137,143);stroke-width:25px;"/>
        <g transform="matrix(1.19212,-1.11022e-16,1.11022e-16,1.19212,-161.404,-8.71162)">
            <path d="M585.082,176.335L585.082,279.201C585.082,284.823 587.315,290.214 591.29,294.189C595.266,298.165 600.657,300.398 606.279,300.398C641.716,300.398 709.145,300.398 709.145,300.398" style="fill:none;stroke:rgb(132,137,143);stroke-width:20.97px;"/>
        </g>
        <g transform="matrix(0.859155,0,0,1,59.4617,-2.27374e-13)">
            <path d="M369,395L440,395" style="fill:none;stroke:rgb(132,137,143);stroke-width:26.82px;"/>
        </g>
        <g transform="matrix(0.914163,0,0,1,45.5629,-4.5)">
            <path d="M362,485L595,485" style="fill:none;stroke:rgb(132,137,143);stroke-width:26.09px;"/>
        </g>
        <g transform="matrix(0.914163,0,0,1,45.5629,77.5)">
            <path d="M362,485L595,485" style="fill:none;stroke:rgb(132,137,143);stroke-width:26.09px;"/>
        </g>
        <g transform="matrix(0.939914,0,0,1,30.241,163)">
            <path d="M362,485L595,485" style="fill:none;stroke:rgb(132,137,143);stroke-width:25.76px;"/>
        </g>
    </g>
</svg>
